<?xml version="1.0" standalone="no"?>
<!DOCTYPE svg PUBLIC "-//W3C//DTD SVG 20010904//EN"
 "http://www.w3.org/TR/2001/REC-SVG-20010904/DTD/svg10.dtd">
<svg version="1.0" xmlns="http://www.w3.org/2000/svg"
 width="1228.000000pt" height="1228.000000pt" viewBox="0 0 1228.000000 1228.000000"
 preserveAspectRatio="xMidYMid meet">
<metadata>
Created by potrace 1.14, written by Peter Selinger 2001-2017
</metadata>
<g transform="translate(0.000000,1228.000000) scale(0.100000,-0.100000)"
fill="#000000" stroke="none">
<path d="M0 6140 l0 -6140 6140 0 6140 0 0 6140 0 6140 -6140 0 -6140 0 0
-6140z m6400 5772 l0 -209 -191 -7 c-1174 -42 -2283 -403 -3095 -1009 -170
-126 -283 -224 -467 -406 -292 -288 -464 -492 -642 -760 -338 -512 -526 -1026
-601 -1646 -15 -127 -16 -279 -14 -1596 l2 -1456 -63 -6 c-34 -4 -107 -7 -163
-7 l-101 0 -52 83 c-150 238 -266 560 -325 902 -19 109 -22 167 -22 360 0 211
2 241 27 356 45 213 123 402 228 554 l48 70 4 345 c4 281 9 374 26 500 141
1017 559 1818 1357 2600 457 448 955 779 1554 1035 697 298 1548 479 2340 498
58 2 115 4 128 5 l22 2 0 -208z m-3874 -3829 c133 -44 233 -161 268 -310 12
-54 11 -71 -20 -253 -171 -1008 -156 -2041 43 -3035 14 -71 25 -141 24 -155
-2 -43 -58 -148 -107 -200 -25 -27 -72 -62 -103 -77 l-56 -28 -400 0 -400 0
-58 28 c-76 38 -148 111 -186 189 -63 129 -61 49 -61 1774 0 1536 0 1573 20
1650 45 178 143 310 281 378 41 20 99 40 129 45 30 5 172 9 316 10 219 1 268
-2 310 -16z m7789 -27 c135 -5 204 -27 293 -94 118 -89 194 -224 221 -391 14
-85 3 -3179 -11 -3246 -28 -133 -124 -261 -235 -313 -55 -26 -67 -27 -234 -30
l-177 -4 -16 -86 c-134 -688 -443 -1359 -870 -1892 -334 -417 -751 -769 -1221
-1033 -473 -265 -1085 -457 -1648 -518 l-118 -13 -26 -55 c-34 -71 -99 -136
-171 -169 l-57 -27 -280 0 c-274 0 -281 1 -327 23 -75 38 -134 96 -170 170
l-33 67 0 190 c0 184 1 192 26 245 39 82 90 135 167 172 l67 33 275 0 275 0
55 -26 c30 -14 74 -45 98 -68 48 -47 102 -150 102 -195 l0 -28 68 6 c107 11
366 54 486 82 606 138 1161 410 1633 798 153 127 410 388 537 546 386 483 658
1058 790 1668 l24 112 -28 0 c-15 0 -59 9 -96 21 -59 18 -77 30 -134 88 -69
69 -112 151 -113 216 0 17 16 114 36 216 189 965 197 1999 21 3014 -25 145
-26 151 -9 210 35 127 116 234 212 281 83 40 170 44 588 30z m-1765 -131 l0
-25 -2490 0 -2490 0 0 25 0 25 2490 0 2490 0 0 -25z m-3542 -617 l2 -198 -245
0 -245 0 0 -1295 0 -1295 -225 0 -225 0 0 1295 0 1295 -245 0 -245 0 0 200 0
200 713 -2 712 -3 3 -197z m1577 167 c76 -39 110 -91 125 -192 8 -47 10 -205
8 -450 -5 -422 -6 -432 -75 -513 -20 -23 -104 -86 -190 -142 -84 -55 -151
-104 -148 -108 3 -4 58 -40 122 -80 191 -118 217 -140 255 -217 l33 -68 0
-490 c0 -553 0 -557 -74 -629 -67 -66 -72 -66 -656 -66 -583 0 -585 0 -654 69
-63 63 -64 74 -68 504 l-4 387 225 0 226 0 0 -285 0 -285 280 0 280 0 0 373 0
372 -270 185 -270 184 0 51 0 50 268 180 267 180 3 318 2 317 -280 0 -280 0
-2 -272 -3 -273 -220 0 -220 0 -3 344 c-3 377 3 432 54 498 31 41 93 73 159
83 27 5 275 8 551 7 l500 -2 59 -30z m1846 4 c31 -15 68 -42 82 -61 51 -66 57
-120 57 -490 l0 -338 -225 0 -225 0 0 265 0 265 -290 0 -290 0 0 -1105 0
-1105 290 0 290 0 0 415 0 415 -170 0 -170 0 2 188 3 187 393 3 392 2 0 -679
c0 -442 -4 -697 -11 -730 -16 -74 -58 -134 -115 -162 l-49 -24 -570 0 c-569 0
-570 0 -611 22 -23 12 -53 36 -67 53 -59 70 -57 17 -57 1410 0 1418 -3 1343
66 1420 36 39 93 65 164 73 19 3 265 4 545 3 l510 -1 56 -26z m2856 -311 c94
-100 196 -282 257 -457 75 -215 105 -464 86 -709 -32 -412 -165 -835 -360
-1139 l-39 -63 -104 0 c-57 0 -132 3 -166 6 l-61 7 0 1193 0 1194 178 0 178 0
31 -32z m-2737 -3068 c0 -20 -7 -20 -2490 -20 -2483 0 -2490 0 -2490 20 0 20
7 20 2490 20 2483 0 2490 0 2490 -20z"/>
</g>
</svg>
